<?xml version="1.0" encoding="UTF-8" standalone="no"?><!DOCTYPE svg PUBLIC "-//W3C//DTD SVG 1.1//EN" "http://www.w3.org/Graphics/SVG/1.1/DTD/svg11.dtd"><svg width="48.046875" height="48" viewBox="0 0 49 48" version="1.1" xmlns="http://www.w3.org/2000/svg" xmlns:xlink="http://www.w3.org/1999/xlink" xml:space="preserve" xmlns:serif="http://www.serif.com/" style="fill-rule:evenodd;clip-rule:evenodd;stroke-linejoin:round;stroke-miterlimit:2;"><path d="M8.766,28.886l0,3.286l-8.707,-0l8.707,-3.286Zm28.887,-0.471l0,3.586l9.296,0l-9.296,-3.586Z" style="fill:#cfa72a;fill-rule:nonzero;"/><path d="M9.797,0.467l19.447,-0l9.256,9.36l0,26.794c0,0.569 -0.468,1.038 -1.038,1.038l-27.665,0c-0.569,0 -1.038,-0.469 -1.038,-1.038l0,-35.117c0,-0.568 0.469,-1.037 1.038,-1.037Z" style="fill:#36c1b6;fill-rule:nonzero;"/><path d="M29.244,0.467l-0,8.322c-0,0.569 0.469,1.038 1.037,1.038l8.219,0l-9.256,-9.36Z" style="fill:#dcf9f3;fill-rule:nonzero;"/><path d="M0,31.843l15.457,0l2.639,3.994l12.064,0l2.262,-3.994l14.703,0l0,15.613l-47.125,-0l-0,-15.613Z" style="fill:#ffd159;fill-rule:nonzero;"/><path d="M22.482,0.559l0.764,0l-0,0.764l-0.764,-0l0,-0.764Zm0,1.529l0.764,-0l-0,0.764l-0.764,-0l0,-0.764Zm0.764,-0.765l0.764,-0l-0,0.765l-0.764,-0l-0,-0.765Zm-0,1.529l0.764,-0l-0,0.763l-0.764,0l-0,-0.763Zm-0.764,0.763l0.764,0l-0,0.764l-0.764,0l0,-0.764Zm0.764,0.764l0.764,0l-0,0.765l-0.764,0l-0,-0.765Zm-0.764,0.765l0.764,0l-0,0.764l-0.764,-0l0,-0.764Zm0.764,0.764l0.764,-0l-0,0.765l-0.764,-0l-0,-0.765Zm-0.764,0.725l0.764,-0l-0,0.763l-0.764,0l0,-0.763Zm-0.162,1.207l1.86,-0l0,2.454l-1.86,-0l0,-2.454Z" style="fill:#fff;fill-rule:nonzero;"/><text x="8.327px" y="26.42px" style="font-family:'baotucuheiti';font-weight:700;font-size:16.147px;fill:#fff;">Tool</text><g><text x="10.453px" y="44.552px" style="font-family:'InsaniburgerwithCheese', 'Insaniburger with Cheese';font-size:11.334px;fill:#ff6969;">Ja</text><text x="21.914px" y="44.552px" style="font-family:'InsaniburgerwithCheese', 'Insaniburger with Cheese';font-size:11.334px;fill:#ff6969;">v<tspan x="28.079px " y="44.552px ">a</tspan></text></g></svg>